<?xml version="1.0" encoding="UTF-8"?>
<svg width="61px" height="61px" viewBox="0 0 61 61" version="1.1" xmlns="http://www.w3.org/2000/svg" xmlns:xlink="http://www.w3.org/1999/xlink">
    <!-- Generator: Sketch 40.2 (33826) - http://www.bohemiancoding.com/sketch -->
    <title>Page 1</title>
    <desc>Created with Sketch.</desc>
    <defs></defs>
    <g id="Home,-PDP-&amp;-Style-Guide" stroke="none" stroke-width="1" fill="none" fill-rule="evenodd">
        <g id="JUN002.Web.Home" transform="translate(-896.000000, -1751.000000)" stroke="#FF9910">
            <g id="Prep-Cook-Enjoy" transform="translate(0.000000, 1119.000000)">
                <g id="Page-1" transform="translate(897.000000, 633.000000)">
                    <path d="M59.4992,29.9348 C59.4992,46.2628 46.2632,59.4988 29.9352,59.4988 C13.6072,59.4988 0.3702,46.2628 0.3702,29.9348 C0.3702,13.6068 13.6072,0.3708 29.9352,0.3708 C46.2632,0.3708 59.4992,13.6068 59.4992,29.9348 L59.4992,29.9348 Z" id="Stroke-1"></path>
                    <path d="M53.8772,29.9348 C53.8772,43.1578 43.1582,53.8768 29.9352,53.8768 C16.7122,53.8768 5.9922,43.1578 5.9922,29.9348 C5.9922,16.7118 16.7122,5.9928 29.9352,5.9928 C43.1582,5.9928 53.8772,16.7118 53.8772,29.9348 L53.8772,29.9348 Z" id="Stroke-3"></path>
                    <path d="M38.1193,29.9348 C38.1193,34.4548 34.4553,38.1188 29.9353,38.1188 C25.4143,38.1188 21.7503,34.4548 21.7503,29.9348 C21.7503,25.4148 25.4143,21.7508 29.9353,21.7508 C34.4553,21.7508 38.1193,25.4148 38.1193,29.9348 L38.1193,29.9348 Z" id="Stroke-5"></path>
                    <path d="M43.5832,16.2864 C44.8482,17.5514 44.8482,19.6014 43.5832,20.8664 C42.3182,22.1304 40.2682,22.1304 39.0032,20.8664 C37.7392,19.6014 37.7392,17.5514 39.0032,16.2864 C40.2682,15.0214 42.3182,15.0214 43.5832,16.2864 L43.5832,16.2864 Z" id="Stroke-7"></path>
                </g>
            </g>
        </g>
    </g>
</svg>